# xmcd
#
# Track frame offsets:
#	150
#	13237
#	27827
#	45130
#	61960
#	78540
#	92447
#	106470
#	130669
#	143778
#
# Disc length: 2031 seconds
#
# Revision: 1
# Processed by: cddbd v1.5PL3 Copyright (c) Steve Scherf et al.
# Submitted via: EasyCDDAExtractor 5.0.6
#
DISCID=7507ed0a
DTITLE=Anni Piper - Jailbait
DYEAR=2004
DGENRE=Blues
TTITLE0=Two's Company
TTITLE1=Come in my Kitchen
TTITLE2=Blow My Cares Away
TTITLE3=Jailbait
TTITLE4=I Couldn't Tell You
TTITLE5=Live to Play
TTITLE6=Hitch-hiker Shuffle
TTITLE7=Ain't Nobody Watchin'
TTITLE8=Real Blues Mama
TTITLE9=Man's Woman
EXTD=
EXTT0=
EXTT1=
EXTT2=
EXTT3=
EXTT4=
EXTT5=
EXTT6=
EXTT7=
EXTT8=
EXTT9=
PLAYORDER=
